Coordinates
version=1
nRows=14
nColumns=36
inDegrees=yes

Units are S.I. units (second, meters, Newtons, ...)
If the header above contains a line with 'inDegrees', this indicates whether rotational values are in degrees (yes) or radians (no).

endheader
time	pelvis_tilt	pelvis_list	pelvis_rotation	pelvis_tx	pelvis_ty	pelvis_tz	hip_flexion_r	hip_adduction_r	hip_rotation_r	knee_angle_r	knee_angle_r_beta	ankle_angle_r	subtalar_angle_r	mtp_angle_r	hip_flexion_l	hip_adduction_l	hip_rotation_l	knee_angle_l	knee_angle_l_beta	ankle_angle_l	subtalar_angle_l	mtp_angle_l	lumbar_extension	lumbar_bending	lumbar_rotation	arm_flex_r	arm_add_r	arm_rot_r	elbow_flex_r	pro_sup_r	arm_flex_l	arm_add_l	arm_rot_l	elbow_flex_l	pro_sup_l
      0.00000000	     11.58974335	     -0.21883481	      5.12755115	      0.38382262	      1.31390684	     -0.25824062	    -16.48248428	      0.69577702	      3.10218913	      0.16445996	      0.00287037	     12.36692573	     -3.38829066	     -6.07653396	    -17.36375221	     -2.52268597	     -0.39417841	      0.18816983	      0.00328418	     13.71183605	     -2.24239625	     -6.07653396	    -11.43907683	      2.28903752	      0.50588608	     -0.93354590	    -13.28685718	      8.52749684	     17.37721285	     89.26816241	     -1.36880263	    -15.79025616	     11.25412220	     16.34760831	     87.57492987
      0.01666670	      9.98228401	     -0.23571511	      5.20444162	      0.38379631	      1.31119157	     -0.25889139	    -14.71598981	      0.55153890	      2.03329445	      0.15871207	      0.00277005	     13.48208760	     -2.54032359	     -6.67305494	    -15.51828956	     -2.35468538	     -1.27629591	      0.16413497	      0.00286470	     13.13638405	     -2.18652093	     -6.67305494	     -9.55033159	      2.26992871	      0.59253126	     -0.96420148	    -13.09828595	      9.80319291	     15.35091803	     94.07972404	     -1.43578435	    -15.11225654	      6.18611703	     13.48949743	     92.51611812
      0.03333330	     10.33131155	     -0.13186882	      5.71967196	      0.38118096	      1.31165652	     -0.25991248	    -15.19605171	      0.63593470	      1.68918733	      0.16005464	      0.00279348	     13.51322126	     -2.41204295	     -6.77374120	    -15.66184225	     -2.40388375	     -1.92325774	      0.15219063	      0.00265623	     13.12472043	     -2.02896757	     -6.77374120	    -10.27067484	      2.18251474	      0.45291613	     -1.38524168	    -13.05797525	     10.03432489	     15.54305410	     92.60753008	     -0.76911957	    -15.33468758	      6.07021292	     13.56067768	     91.12195467
      0.05000000	     10.24282927	     -0.09476852	      5.79831232	      0.38010985	      1.31105844	     -0.26030412	    -15.04031245	      0.56591241	      0.99928761	      0.17319809	      0.00302288	     13.30937690	     -2.28261231	     -6.89145544	    -15.42860092	     -2.28756746	     -2.57934984	      0.15309343	      0.00267198	     13.13469986	     -2.12544633	     -6.89145544	     -9.90805221	      2.06801859	      0.64060657	     -1.01325515	    -12.87065875	     11.27966682	     13.84341655	     92.28424512	      0.64399611	    -14.97894704	      5.88004263	     10.92578222	     90.65577413
      0.06666670	     10.69702072	     -0.03623677	      5.74367211	      0.37832147	      1.31196136	     -0.26091877	    -15.49030421	      0.55142789	      1.27629615	      0.18605936	      0.00324735	     13.01046556	     -2.88065832	     -7.20052681	    -15.94344570	     -2.20462251	     -3.01967475	      0.15906487	      0.00277621	     12.76779145	     -2.31054389	     -7.20052681	    -10.44229996	      1.95534524	      0.64373573	     -0.78926106	    -12.83966264	     10.33501749	     14.03714483	    100.51834009	      1.10873161	    -14.73655885	      0.16369781	     10.73028766	    101.97533768
      0.08333330	     10.90386780	     -0.03759802	      5.81999246	      0.37854318	      1.31220096	     -0.26092506	    -15.67555125	      0.60806526	      1.41975838	      0.19472978	      0.00339868	     12.65872250	     -3.32609501	     -7.24815535	    -16.18977591	     -2.23574555	     -3.24790388	      0.16379194	      0.00285871	     12.48014455	     -2.42601208	     -7.24815535	    -10.64109709	      1.92630468	      0.52624977	     -0.54214499	    -12.82133888	     12.05419737	     13.89218174	    100.21946230	      1.17821900	    -14.77708651	      0.96459667	     10.24121120	    101.79773042
      0.10000000	     10.83028388	     -0.01304439	      5.96223431	      0.37786963	      1.30976356	     -0.26160180	    -15.55062085	      0.62049039	      1.57525203	      0.19755279	      0.00344795	     12.32856292	     -3.66844395	     -7.38268058	    -16.07829920	     -2.22815134	     -3.32743302	      0.16632644	      0.00290294	     12.26737731	     -2.69921236	     -7.38268058	    -10.55891892	      1.83041420	      0.26776859	     -0.48209291	    -12.67092929	     12.01112502	     13.89626779	    101.61003087	      0.99791794	    -14.80515360	     -0.35696310	     10.31069111	    104.23656157
      0.11666670	     10.64556532	     -0.05192939	      6.11337369	      0.37887127	      1.30969382	     -0.26147154	    -15.32863061	      0.69127287	      1.79894477	      0.19683494	      0.00343542	     12.04812082	     -4.14146776	     -7.41556121	    -15.91435362	     -2.29331141	     -3.38307090	      0.17021652	      0.00297084	     12.09089070	     -2.91820035	     -7.41556121	    -10.31182570	      1.81558363	     -0.03205671	     -0.43516170	    -12.74012342	     14.10399518	     13.94602070	    100.41686263	      0.78037138	    -14.94465724	      1.00426112	     10.17393966	    103.01997075
      0.13333330	     10.44119775	     -0.02638931	      6.20954133	      0.38703973	      1.30998305	     -0.26528997	    -15.17085699	      0.65654634	      1.99528862	      0.19109864	      0.00333530	     11.84331406	     -4.57328473	     -7.44769406	    -15.81390939	     -2.25096175	     -3.55115465	      0.16847944	      0.00294052	     12.09519663	     -2.89892059	     -7.44769406	     -9.90596092	      1.73232325	     -0.41014319	     -0.62668234	    -12.84189475	     16.31692925	     14.19481056	     98.98417843	      0.20866353	    -15.02706032	      2.43869651	     10.16301266	    101.79131958
      0.15000000	     10.13646525	     -0.07251295	      6.26258228	      0.37979227	      1.30961921	     -0.26137122	    -14.85629400	      0.72363872	      1.78712823	      0.18884965	      0.00329605	     11.83096182	     -4.32331199	     -7.47127908	    -15.48451604	     -2.28784723	     -3.51137752	      0.17053181	      0.00297634	     12.14738962	     -2.94980522	     -7.47127908	     -9.51592809	      1.66984059	     -0.66296579	     -0.68524864	    -12.55331981	     13.83833531	     14.09272045	    102.28121325	     -0.17056662	    -15.01026322	     -0.27696258	     10.63707167	    105.92158178
      0.16666670	     10.08290356	     -0.09938594	      6.30427987	      0.38667362	      1.31002554	     -0.25880953	    -14.86084799	      0.78968686	      1.76579570	      0.19137645	      0.00334015	     11.86001409	     -4.35016557	     -7.47129174	    -15.49989388	     -2.31870367	     -3.57278034	      0.16928650	      0.00295461	     12.17324440	     -2.98631804	     -7.47129174	     -9.52611967	      1.62623296	     -0.68186000	     -0.72677204	    -12.51364169	     13.84388813	     14.09506171	    102.28376361	     -0.19142673	    -15.01712608	     -0.28001776	     10.62486395	    105.92166744
      0.18333330	      9.64973257	     -0.23180461	      6.25476058	      0.38824785	      1.30678203	     -0.25849220	    -14.49592976	      0.94115819	      2.08018386	      0.17929048	      0.00312921	     11.69663292	     -4.85680322	     -7.48127406	    -15.16083626	     -2.41989099	     -3.83342707	      0.17006830	      0.00296825	     12.24250170	     -2.86160122	     -7.48127406	     -8.60158174	      1.54002918	     -1.12667010	     -1.11467483	    -12.55818003	     16.24037941	     14.69618804	    101.17967913	     -0.98533710	    -15.25278140	      0.25640239	     10.55056246	    104.52914101
      0.20000000	      9.34417211	     -0.24359334	      6.38768443	      0.38096285	      1.30937490	     -0.26188694	    -14.21725930	      0.98955878	      2.03159703	      0.17612754	      0.00307401	     11.74368449	     -4.85253098	     -7.48961074	    -14.84142030	     -2.43056764	     -3.86820835	      0.17225756	      0.00300646	     12.22773162	     -2.88869539	     -7.48961074	     -8.18144217	      1.49753918	     -1.38798643	     -1.22868441	    -12.37575857	     14.64823681	     14.82396477	    102.90815142	     -1.28024951	    -15.18714813	     -1.95624001	     10.99597460	    106.79249042
      0.21666670	      9.12924780	     -0.26818370	      6.48788437	      0.38215887	      1.30911674	     -0.26158608	    -14.00508171	      1.04923645	      2.04688238	      0.17255836	      0.00301171	     11.74378663	     -4.98704479	     -7.49301309	    -14.60006106	     -2.44455075	     -3.78872522	      0.17240790	      0.00300909	     12.23615206	     -3.08842818	     -7.49301309	     -7.86056275	      1.49562257	     -1.54724245	     -1.19208955	    -12.53536971	     16.75957505	     14.98050872	    101.02361246	     -1.61930846	    -15.25638579	     -0.61705854	     11.02321777	    105.21450644
